name Walk1.mot
datacolumns 19
datarows 15
range 1.21000000 1.22400000
endheader

                time	   L_ground_force_vx	   L_ground_force_vy	   L_ground_force_vz	   L_ground_force_px	   L_ground_force_py	   L_ground_force_pz	   R_ground_force_vx	   R_ground_force_vy	   R_ground_force_vz	   R_ground_force_px	   R_ground_force_py	   R_ground_force_pz	   L_ground_torque_x	   L_ground_torque_y	   L_ground_torque_z	   R_ground_torque_x	   R_ground_torque_y	   R_ground_torque_z	
          1.21000000	          0.00000000	          0.00000000	          0.00000000	          0.00000000	          0.00000000	          0.00000000	         18.87112804	        713.43642571	         33.01193786	         -0.18667942	          0.00000000	         -0.04462053	          0.00000000	          0.00000000	          0.00000000	          0.00000000	         -0.43418483	          0.00000000	
          1.21100000	          0.00000000	          0.00000000	          0.00000000	          0.00000000	          0.00000000	          0.00000000	         19.46670493	        714.65173052	         33.30384169	         -0.18635799	          0.00000000	         -0.04446322	          0.00000000	          0.00000000	          0.00000000	          0.00000000	         -0.45569008	          0.00000000	
          1.21200000	          0.00000000	          0.00000000	          0.00000000	          0.00000000	          0.00000000	          0.00000000	         20.07258177	        715.85108766	         33.59482258	         -0.18602951	          0.00000000	         -0.04427638	          0.00000000	          0.00000000	          0.00000000	          0.00000000	         -0.49451900	          0.00000000	
          1.21300000	          0.00000000	          0.00000000	          0.00000000	          0.00000000	          0.00000000	          0.00000000	         20.66801768	        717.01027946	         33.87264803	         -0.18568528	          0.00000000	         -0.04411102	          0.00000000	          0.00000000	          0.00000000	          0.00000000	         -0.54082005	          0.00000000	
          1.21400000	          0.00000000	          0.00000000	          0.00000000	          0.00000000	          0.00000000	          0.00000000	         21.24183491	        718.15020396	         34.13297356	         -0.18534184	          0.00000000	         -0.04401469	          0.00000000	          0.00000000	          0.00000000	          0.00000000	         -0.58680841	          0.00000000	
          1.21500000	          0.00000000	          0.00000000	          0.00000000	          0.00000000	          0.00000000	          0.00000000	         21.78948874	        719.33625909	         34.37827012	         -0.18502292	          0.00000000	         -0.04400152	          0.00000000	          0.00000000	          0.00000000	          0.00000000	         -0.62310038	          0.00000000	
          1.21600000	          0.00000000	          0.00000000	          0.00000000	          0.00000000	          0.00000000	          0.00000000	         22.31245855	        720.63624089	         34.61250922	         -0.18472659	          0.00000000	         -0.04404226	          0.00000000	          0.00000000	          0.00000000	          0.00000000	         -0.63911044	          0.00000000	
          1.21700000	          0.00000000	          0.00000000	          0.00000000	          0.00000000	          0.00000000	          0.00000000	         22.81854837	        722.06727869	         34.83791784	         -0.18442525	          0.00000000	         -0.04409340	          0.00000000	          0.00000000	          0.00000000	          0.00000000	         -0.62868175	          0.00000000	
          1.21800000	          0.00000000	          0.00000000	          0.00000000	          0.00000000	          0.00000000	          0.00000000	         23.31555595	        723.58640648	         35.05473423	         -0.18409843	          0.00000000	         -0.04413321	          0.00000000	          0.00000000	          0.00000000	          0.00000000	         -0.59308127	          0.00000000	
          1.21900000	          0.00000000	          0.00000000	          0.00000000	          0.00000000	          0.00000000	          0.00000000	         23.80610601	        725.13391022	         35.26269639	         -0.18375264	          0.00000000	         -0.04417089	          0.00000000	          0.00000000	          0.00000000	          0.00000000	         -0.54027773	          0.00000000	
          1.22000000	          0.00000000	          0.00000000	          0.00000000	          0.00000000	          0.00000000	          0.00000000	         24.29587529	        726.66610195	         35.46453860	         -0.18341037	          0.00000000	         -0.04421924	          0.00000000	          0.00000000	          0.00000000	          0.00000000	         -0.48277114	          0.00000000	
          1.22100000	          0.00000000	          0.00000000	          0.00000000	          0.00000000	          0.00000000	          0.00000000	         24.80178063	        728.15204563	         35.66091802	         -0.18308830	          0.00000000	         -0.04426359	          0.00000000	          0.00000000	          0.00000000	          0.00000000	         -0.43428448	          0.00000000	
          1.22200000	          0.00000000	          0.00000000	          0.00000000	          0.00000000	          0.00000000	          0.00000000	         25.33845934	        729.57796047	         35.83763350	         -0.18278991	          0.00000000	         -0.04426807	          0.00000000	          0.00000000	          0.00000000	          0.00000000	         -0.40603316	          0.00000000	
          1.22300000	          0.00000000	          0.00000000	          0.00000000	          0.00000000	          0.00000000	          0.00000000	         25.90119804	        730.95652750	         35.97216155	         -0.18251341	          0.00000000	         -0.04420933	          0.00000000	          0.00000000	          0.00000000	          0.00000000	         -0.40463092	          0.00000000	
          1.22400000	          0.00000000	          0.00000000	          0.00000000	          0.00000000	          0.00000000	          0.00000000	         26.47324856	        732.31394923	         36.06098930	         -0.18226017	          0.00000000	         -0.04409135	          0.00000000	          0.00000000	          0.00000000	          0.00000000	         -0.43282427	          0.00000000	
